<svg width="17" height="20" viewBox="0 0 17 20" fill="none" xmlns="http://www.w3.org/2000/svg">
<path d="M4.048 10.07C4.18883 10.0175 4.34028 9.99026 4.49339 9.98978C4.6465 9.9893 4.79816 10.0156 4.93942 10.0672C5.08068 10.1188 5.20866 10.1945 5.3158 10.29C5.42295 10.3855 5.50707 10.4988 5.56321 10.6231C5.61935 10.7475 5.64635 10.8804 5.64264 11.014C5.63892 11.1477 5.60456 11.2793 5.54157 11.4011C5.47859 11.523 5.38827 11.6325 5.27594 11.7234C5.16362 11.8142 5.03158 11.8845 4.88762 11.93C4.12193 12.1934 3.46478 12.6519 3.00165 13.2458C2.53852 13.8397 2.29086 14.5415 2.29089 15.26V17C2.29089 17.2652 2.41157 17.5196 2.62638 17.7071C2.8412 17.8946 3.13255 18 3.43634 18H12.5999C12.9037 18 13.195 17.8946 13.4099 17.7071C13.6247 17.5196 13.7453 17.2652 13.7453 17V15.353C13.7455 14.6115 13.4875 13.8874 13.0055 13.2768C12.5236 12.6662 11.8404 12.1979 11.0467 11.934C10.9018 11.8901 10.7685 11.8213 10.6547 11.7316C10.5409 11.6419 10.4489 11.5332 10.3841 11.4119C10.3193 11.2905 10.283 11.1591 10.2775 11.0253C10.272 10.8916 10.2973 10.7582 10.3519 10.6331C10.4065 10.508 10.4893 10.3938 10.5954 10.2972C10.7015 10.2006 10.8288 10.1235 10.9696 10.0706C11.1105 10.0177 11.2621 9.99008 11.4154 9.98929C11.5687 9.98849 11.7207 10.0146 11.8622 10.066C13.0897 10.4742 14.1461 11.1983 14.8915 12.1425C15.6369 13.0867 16.0361 14.2063 16.0362 15.353V17C16.0362 17.7956 15.6742 18.5587 15.0298 19.1213C14.3853 19.6839 13.5113 20 12.5999 20H3.43634C2.52496 20 1.65092 19.6839 1.00648 19.1213C0.362042 18.5587 0 17.7956 0 17L0 15.26C0.000157614 14.1402 0.386332 13.0463 1.10829 12.1206C1.83024 11.195 2.85457 10.4805 4.048 10.07ZM8.01812 0C9.23328 0 10.3987 0.421427 11.2579 1.17157C12.1172 1.92172 12.5999 2.93913 12.5999 4V6C12.5999 7.06087 12.1172 8.07828 11.2579 8.82843C10.3987 9.57857 9.23328 10 8.01812 10C6.80295 10 5.63756 9.57857 4.77831 8.82843C3.91906 8.07828 3.43634 7.06087 3.43634 6V4C3.43634 2.93913 3.91906 1.92172 4.77831 1.17157C5.63756 0.421427 6.80295 0 8.01812 0ZM8.01812 2C7.41054 2 6.82784 2.21071 6.39821 2.58579C5.96859 2.96086 5.72723 3.46957 5.72723 4V6C5.72723 6.53043 5.96859 7.03914 6.39821 7.41421C6.82784 7.78929 7.41054 8 8.01812 8C8.6257 8 9.2084 7.78929 9.63802 7.41421C10.0676 7.03914 10.309 6.53043 10.309 6V4C10.309 3.46957 10.0676 2.96086 9.63802 2.58579C9.2084 2.21071 8.6257 2 8.01812 2Z" fill="#181725"/>
</svg>
