<svg width="13" height="7" viewBox="0 0 13 7" fill="none" xmlns="http://www.w3.org/2000/svg">
<path d="M11.3579 0.28292C11.5436 0.118644 11.788 0.0273795 12.0421 0.0365056C12.2962 0.0365056 12.5308 0.12777 12.7165 0.301173C12.8925 0.46545 13 0.693612 13 0.9309C13 1.16819 12.912 1.39635 12.7361 1.56975L7.20376 6.73533C7.11579 6.81747 7.00827 6.88136 6.89098 6.92699C6.77368 6.97262 6.64662 7 6.51955 7C6.39248 7 6.26541 6.97262 6.13835 6.92699C6.02105 6.88136 5.91353 6.81747 5.82556 6.73533L0.293233 1.56975C0.205263 1.48761 0.127067 1.38722 0.0781952 1.27771C0.029323 1.15906 -2.60502e-07 1.04042 -2.65688e-07 0.921774C-2.70874e-07 0.80313 0.0195486 0.675359 0.0684208 0.565841C0.117293 0.456324 0.195488 0.355933 0.283458 0.264668C0.371428 0.18253 0.488721 0.118645 0.606015 0.0730123C0.723308 0.0182533 0.850376 4.39666e-07 0.987218 4.33684e-07C1.11429 4.2813e-07 1.24135 0.0273799 1.35865 0.0730123C1.47594 0.118645 1.58346 0.191656 1.6812 0.282921L6.51955 4.80052L7.42857 3.94263L11.3579 0.28292Z" fill="#7C7C7C"/>
</svg>
