<svg width="15" height="9" viewBox="0 0 15 9" fill="none" xmlns="http://www.w3.org/2000/svg">
<path d="M0.100342 1.30605C0.100349 1.15529 0.121855 0.988638 0.18042 0.842178C0.23863 0.696829 0.330749 0.566662 0.429443 0.45253L0.43335 0.448624C0.538392 0.339337 0.674314 0.256608 0.806397 0.198624L0.916748 0.151749C1.02888 0.113233 1.1455 0.0999909 1.26343 0.0999909C1.41594 0.100042 1.56623 0.136462 1.70288 0.195694C1.84432 0.257009 1.97087 0.353688 2.08276 0.470108L7.22046 5.81679L8.12769 4.86269L8.12769 4.86171L12.3591 0.470108L12.3611 0.468155C12.5782 0.254123 12.8664 0.132908 13.1687 0.143936L13.28 0.149796C13.5389 0.176073 13.7757 0.294037 13.9666 0.492569C14.1732 0.707685 14.2995 1.00559 14.2996 1.31679C14.2996 1.62337 14.1979 1.92225 13.99 2.15077L13.988 2.15273L8.03003 8.35194C7.92511 8.46108 7.79776 8.54454 7.66089 8.6039C7.52425 8.66313 7.37393 8.69953 7.22144 8.6996C7.06854 8.6996 6.91831 8.66294 6.77319 8.60487L6.77026 8.6039C6.63346 8.54453 6.50599 8.46105 6.40112 8.35194L0.444092 2.15273C0.342239 2.04676 0.249425 1.91621 0.191162 1.77089L0.190186 1.76796C0.134633 1.61768 0.100342 1.46322 0.100342 1.30605Z" fill="#181725" stroke="#181725" stroke-width="0.2"/>
</svg>
