<svg width="9" height="15" viewBox="0 0 9 15" fill="none" xmlns="http://www.w3.org/2000/svg">
<path d="M1.30603 14.2996C1.15527 14.2996 0.988622 14.2781 0.842163 14.2195C0.696813 14.1613 0.566647 14.0692 0.452515 13.9705L0.448608 13.9666C0.339322 13.8616 0.256593 13.7256 0.198608 13.5936L0.151733 13.4832C0.113218 13.3711 0.0999755 13.2545 0.0999755 13.1365C0.100026 12.984 0.136447 12.8337 0.195679 12.6971C0.256994 12.5556 0.353672 12.4291 0.470093 12.3172L5.81677 7.17949L4.86267 6.27226L4.86169 6.27226L0.470092 2.04082L0.468139 2.03886C0.254107 1.82172 0.132891 1.5335 0.14392 1.23125L0.149779 1.11992C0.176056 0.861086 0.29402 0.624216 0.492553 0.433396C0.707668 0.226699 1.00558 0.100465 1.31677 0.100388C1.62336 0.100388 1.92223 0.202019 2.15076 0.409958L2.15271 0.411912L8.35193 6.36992C8.46107 6.47484 8.54452 6.60219 8.60388 6.73906C8.66311 6.87569 8.69952 7.02601 8.69958 7.17851C8.69958 7.33141 8.66293 7.48164 8.60486 7.62675L8.60388 7.62968C8.54451 7.76648 8.46104 7.89396 8.35193 7.99883L2.15271 13.9559C2.04674 14.0577 1.9162 14.1505 1.77087 14.2088L1.76794 14.2098C1.61766 14.2653 1.46321 14.2996 1.30603 14.2996Z" fill="#181725" stroke="#181725" stroke-width="0.2"/>
</svg>
