<svg width="23" height="20" viewBox="0 0 23 20" fill="none" xmlns="http://www.w3.org/2000/svg">
<path d="M3.59462 8.81047L11.4187 16.6346L19.2428 8.81047C19.9346 8.11872 20.3232 7.18051 20.3232 6.20223C20.3232 5.22396 19.9346 4.28574 19.2428 3.594C18.9003 3.25148 18.4937 2.97978 18.0461 2.79441C17.5986 2.60904 17.119 2.51363 16.6346 2.51363C15.6563 2.51363 14.7181 2.90225 14.0263 3.594L11.4187 6.20162L8.8111 3.59523C8.11759 2.91276 7.1825 2.53198 6.20951 2.53582C5.23652 2.53967 4.30447 2.92783 3.61638 3.61576C2.92829 4.30369 2.53991 5.23565 2.53583 6.20864C2.53175 7.18162 2.91232 8.1168 3.59462 8.81047ZM10.5495 1.85435L11.4187 2.72356L12.2879 1.85435C12.8578 1.27943 13.5357 0.82274 14.2826 0.510495C15.0294 0.19825 15.8306 0.0366008 16.6402 0.0348282C17.4497 0.0330555 18.2516 0.191194 18.9998 0.500166C19.7481 0.809137 20.4279 1.26286 21.0003 1.83527C21.5727 2.40769 22.0265 3.08753 22.3354 3.83577C22.6444 4.58401 22.8025 5.38591 22.8008 6.19543C22.799 7.00495 22.6373 7.80615 22.3251 8.55302C22.0128 9.2999 21.5562 9.97775 20.9812 10.5477L12.2892 19.241C12.175 19.3553 12.0394 19.446 11.8901 19.5078C11.7409 19.5697 11.5809 19.6015 11.4193 19.6015C11.2578 19.6015 11.0978 19.5697 10.9485 19.5078C10.7993 19.446 10.6637 19.3553 10.5495 19.241L1.8562 10.5489C1.27347 9.98081 0.809326 9.30269 0.490709 8.55384C0.172092 7.80499 0.00534031 7.00033 0.000126183 6.18654C-0.00508794 5.37275 0.15134 4.56602 0.460335 3.81315C0.76933 3.06028 1.22474 2.37626 1.80015 1.80077C2.37556 1.22528 3.05952 0.769767 3.81234 0.460665C4.56517 0.151563 5.37188 -0.00497836 6.18567 0.000120674C6.99947 0.0052197 7.80415 0.171858 8.55304 0.490369C9.30193 0.80888 9.98013 1.27292 10.5483 1.85558L10.5495 1.85435Z" fill="#181725"/>
</svg>
