<svg width="93" height="14" viewBox="0 0 93 14" fill="none" xmlns="http://www.w3.org/2000/svg">
<path d="M7.36104 11.6082L2.81252 14L3.68126 8.93493L0 5.34725L5.08567 4.6082L7.36104 0L9.63566 4.6082L14.7213 5.34725L11.0408 8.93493L11.9103 14L7.36104 11.6082Z" fill="#F3603F"/>
<path d="M26.7983 11.6082L22.2498 14L23.1185 8.93496L19.4373 5.34728L24.5229 4.60823L26.7983 3.05176e-05L29.0729 4.60823L34.1586 5.34728L30.4781 8.93496L31.3475 14L26.7983 11.6082Z" fill="#F3603F"/>
<path d="M46.2357 11.6082L41.6872 14L42.5559 8.93496L38.8746 5.34728L43.9603 4.60823L46.2357 3.05176e-05L48.5103 4.60823L53.596 5.34728L49.9155 8.93496L50.7849 14L46.2357 11.6082Z" fill="#F3603F"/>
<path d="M65.673 11.6082L61.1245 14L61.9933 8.93496L58.312 5.34728L63.3977 4.60823L65.673 3.05176e-05L67.9477 4.60823L73.0334 5.34728L69.3528 8.93496L70.2223 14L65.673 11.6082Z" fill="#F3603F"/>
<path d="M85.1105 11.6082L80.562 14L81.4308 8.93496L77.7495 5.34728L82.8352 4.60823L85.1105 3.05176e-05L87.3852 4.60823L92.4709 5.34728L88.7903 8.93496L89.6598 14L85.1105 11.6082Z" fill="#F3603F"/>
</svg>
